# xmcd
#
# Track frame offsets: 
#        150
#        14169
#        26518
#        39500
#        55486
#        72128
#        85576
#        100331
#        114469
#        136211
#        151011
#        167328
#        182430
#        197612
#        216838
#        232720
#        256823
#        278682
#        294542
#
# Disc length: 4171 seconds
#
# Revision: 1
# Processed by: cddbd v1.5PL3 Copyright (c) Steve Scherf et al.
# Submitted via: ExactAudioCopy v0.90b4
#
DISCID=f5104913
DTITLE=Lorrie Morgan - The Color Of Roses (Live)
DYEAR=2002
DGENRE=Country
TTITLE0=Trainwreck Of Emotion
TTITLE1=What Part Of No
TTITLE2=Except For Monday
TTITLE3=Good As I Was To You
TTITLE4=A Picture Of Me (Without You)
TTITLE5=Go Away
TTITLE6=I Didn't Know My Own Strength
TTITLE7=1-800-Used To Be
TTITLE8=Something In Red
TTITLE9=Will  You Still Love Me Tomorrow
TTITLE10=Half Enough
TTITLE11=Harper Valley PTA
TTITLE12=Watch Me
TTITLE13=The Color Of Roses
TTITLE14=Help Me Make It Through The Night
TTITLE15=Secret Love
TTITLE16=Good Morning Heartache
TTITLE17=Fly Me To The Moon
TTITLE18=My Favorite Things
EXTD=
EXTT0=
EXTT1=
EXTT2=
EXTT3=
EXTT4=
EXTT5=
EXTT6=
EXTT7=
EXTT8=
EXTT9=
EXTT10=
EXTT11=
EXTT12=
EXTT13=
EXTT14=
EXTT15=
EXTT16=
EXTT17=
EXTT18=
PLAYORDER=
